# This file uses centimeters as units for non-parametric coordinates.

mtllib ../Materials/Bush.mtl
g default
v 2.626488 6.131329 2.741084
v -3.878561 6.925245 -2.548262
v 7.956806 7.781500 -3.566669
v 1.451759 8.575417 -8.856015
v 1.211800 0.711457 2.831163
v 0.331545 8.877708 -2.641931
v 8.543396 4.917471 7.927676
v 7.663139 13.083722 2.454582
v -5.884594 6.463929 -0.908258
v 5.828083 4.473171 -2.054340
v -5.641867 13.458296 -10.576939
v 6.070812 11.467538 -11.723021
v -1.199238 6.097655 6.305038
v 2.740719 11.285882 -6.115626
v 12.053532 6.868506 10.830937
v 15.993488 12.056733 -1.589727
v 4.248005 6.770751 4.875207
v -2.704071 10.609520 -4.684529
v 9.711971 17.921843 5.379461
v 2.759895 21.760611 -4.180275
v -4.801945 6.868049 -1.783658
v 4.121786 8.551703 5.252126
v -7.118006 18.117290 -1.538048
v 1.805725 19.800945 5.497736
v -2.276016 5.952426 2.993565
v 5.154236 6.870537 -2.442240
v -7.290228 10.869160 -3.029966
v 0.140022 11.787271 -8.465771
v 0.785797 6.515222 -2.956847
v -3.392757 2.837212 0.914511
v -4.276024 7.677583 -7.316020
v -8.454578 3.999572 -3.444663
v 5.670860 9.897200 4.472279
v -4.367456 10.642527 -1.941778
v -0.783232 9.107710 14.481516
v -10.821548 9.853037 8.067460
v 4.797630 11.183064 3.248360
v -3.252113 6.197996 -3.055200
v 5.223640 19.827745 -4.132166
v -2.826105 14.842678 -10.435726
v -5.098740 3.840223 0.308029
v 4.352444 6.576589 -2.790056
v -9.142437 8.358077 -8.037519
v 0.308746 11.094442 -11.135603
v 3.029064 8.017220 8.285448
v 1.838942 9.727139 -5.323211
v 12.988281 17.516989 8.608122
v 11.798161 19.226908 -5.000537
v 3.271614 -0.376057 3.489524
v -4.302753 -0.376057 -3.588531
v 3.271614 9.990713 3.489524
v -4.302753 9.990713 -3.588531
vt 0.000000 0.000000
vt 1.000000 0.000000
vt 0.000000 1.000000
vt 1.000000 1.000000
vt 0.000000 0.000000
vt 1.000000 0.000000
vt 1.000000 1.000000
vt 0.000000 1.000000
vt 0.000000 0.000000
vt 1.000000 0.000000
vt 1.000000 1.000000
vt 0.000000 1.000000
vt 0.000000 0.000000
vt 1.000000 0.000000
vt 1.000000 1.000000
vt 0.000000 1.000000
vt 0.000000 0.000000
vt 1.000000 0.000000
vt 1.000000 1.000000
vt 0.000000 1.000000
vt 0.000000 0.000000
vt 1.000000 0.000000
vt 1.000000 1.000000
vt 0.000000 1.000000
vt 0.000000 0.000000
vt 1.000000 0.000000
vt 1.000000 1.000000
vt 0.000000 1.000000
vt 0.000000 0.000000
vt 1.000000 0.000000
vt 1.000000 1.000000
vt 0.000000 1.000000
vt 0.000000 0.000000
vt 1.000000 0.000000
vt 1.000000 1.000000
vt 0.000000 1.000000
vt 0.000000 0.000000
vt 1.000000 0.000000
vt 1.000000 1.000000
vt 0.000000 1.000000
vt 0.000000 0.000000
vt 1.000000 0.000000
vt 1.000000 1.000000
vt 0.000000 1.000000
vt 0.000000 0.000000
vt 1.000000 0.000000
vt 1.000000 1.000000
vt 0.000000 1.000000
vt 0.000000 0.000000
vt 1.000000 0.000000
vt 1.000000 1.000000
vt 0.000000 1.000000
vn 0.052458 -0.976073 -0.211021
vn 0.052458 -0.976073 -0.211021
vn 0.052458 -0.976073 -0.211021
vn 0.052458 -0.976073 -0.211021
vn 0.663530 -0.365852 -0.652595
vn 0.663530 -0.365852 -0.652595
vn 0.663530 -0.365852 -0.652595
vn 0.663530 -0.365852 -0.652595
vn 0.191376 0.792961 0.578436
vn 0.191376 0.792961 0.578436
vn 0.191376 0.792961 0.578436
vn 0.191376 0.792961 0.578436
vn 0.168040 -0.927439 -0.334096
vn 0.168040 -0.927439 -0.334096
vn 0.168040 -0.927439 -0.334096
vn 0.168040 -0.927439 -0.334096
vn 0.702706 -0.315484 -0.637710
vn 0.702706 -0.315484 -0.637710
vn 0.702706 -0.315484 -0.637710
vn 0.702706 -0.315484 -0.637710
vn -0.596604 -0.140085 0.790215
vn -0.596603 -0.140085 0.790215
vn -0.596604 -0.140085 0.790215
vn -0.596603 -0.140085 0.790215
vn 0.247620 0.841274 0.480565
vn 0.247620 0.841274 0.480565
vn 0.247620 0.841274 0.480565
vn 0.247620 0.841274 0.480565
vn 0.250855 -0.822420 -0.510585
vn 0.250855 -0.822420 -0.510585
vn 0.250855 -0.822420 -0.510585
vn 0.250855 -0.822420 -0.510585
vn 0.016821 0.995854 0.089395
vn 0.016821 0.995854 0.089395
vn 0.016821 0.995854 0.089395
vn 0.016821 0.995854 0.089395
vn 0.705532 -0.479941 -0.521422
vn 0.705532 -0.479941 -0.521422
vn 0.705532 -0.479941 -0.521422
vn 0.705532 -0.479941 -0.521422
vn -0.083072 0.858965 0.505251
vn -0.083072 0.858965 0.505251
vn -0.083072 0.858965 0.505251
vn -0.083072 0.858965 0.505251
vn 0.684994 -0.713045 -0.149499
vn 0.684994 -0.713045 -0.149499
vn 0.684994 -0.713045 -0.149499
vn 0.684994 -0.713045 -0.149499
vn 0.682764 0.000000 -0.730639
vn 0.682764 0.000000 -0.730639
vn 0.682764 0.000000 -0.730639
vn 0.682764 0.000000 -0.730639
s off
g pPlane162
usemtl lambert11SG
f 1/1/1 2/2/2 4/4/3 3/3/4
f 5/5/5 6/6/6 8/7/7 7/8/8
usemtl lambert7SG
f 9/9/9 10/10/10 12/11/11 11/12/12
usemtl lambert11SG
f 13/13/13 14/14/14 16/15/15 15/16/16
f 17/17/17 18/18/18 20/19/19 19/20/20
usemtl lambert10SG
f 21/21/21 22/22/22 24/23/23 23/24/24
f 25/25/25 26/26/26 28/27/27 27/28/28
usemtl lambert11SG
f 29/29/29 30/30/30 32/31/31 31/32/32
usemtl lambert7SG
f 33/33/33 34/34/34 36/35/35 35/36/36
usemtl lambert11SG
f 37/37/37 38/38/38 40/39/39 39/40/40
usemtl lambert7SG
f 41/41/41 42/42/42 44/43/43 43/44/44
usemtl lambert10SG
f 45/45/45 46/46/46 48/47/47 47/48/48
usemtl lambert3SG
f 49/49/49 50/50/50 52/51/51 51/52/52
