# Blender v2.81 (sub 16) OBJ File: ''
# www.blender.org
mtllib ../Materials/Defence.mtl
o Defence.001
v 5.607978 -3.504430 2.397096
v 10.433051 -3.504430 2.397096
v 10.433051 3.858993 2.397098
v 5.607978 3.858993 2.397098
v 4.034384 4.074708 4.016135
v 12.006646 4.074708 4.016135
v 12.006646 4.074710 -4.016984
v 4.034384 4.074710 -4.016984
v 5.570371 3.820456 -2.591166
v 10.470658 3.820456 -2.591166
v 10.470658 -3.465891 -2.591167
v 5.570371 -3.465891 -2.591167
v 4.034384 -3.942043 -4.016985
v 12.006646 -3.942043 -4.016985
v 12.006646 -3.942044 4.016133
v 4.034384 -3.942044 4.016133
v 10.496735 -3.458952 2.438435
v 10.496735 -3.458951 -2.473953
v 10.496735 3.813517 -2.473952
v 10.496735 3.813516 2.438436
v 5.587795 -3.497870 -2.436519
v 5.587795 -3.497871 2.401001
v 5.587795 3.852431 2.401002
v 5.587795 3.852432 -2.436518
v 12.006646 -3.261578 -3.183028
v 12.006646 -3.261579 3.182176
v 12.006646 3.438676 -3.183027
v 12.006646 3.438675 3.182177
v 11.195281 3.447667 -4.016984
v 4.845749 3.447667 -4.016984
v 11.195281 -3.270570 -4.016985
v 4.845749 -3.270570 -4.016985
v 4.034384 -3.312005 3.133673
v 4.034384 -3.312004 -3.134525
v 4.034384 3.489101 3.133674
v 4.034384 3.489102 -3.134524
v 11.146546 -3.320509 4.016133
v 4.894483 -3.320509 4.016133
v 11.146546 3.497605 4.016134
v 4.894483 3.497605 4.016134
v -10.392021 -3.504430 2.397096
v -5.566949 -3.504430 2.397096
v -5.566949 3.858993 2.397098
v -10.392021 3.858993 2.397098
v -11.965616 4.074708 4.016135
v -3.993354 4.074708 4.016135
v -3.993354 4.074710 -4.016984
v -11.965616 4.074710 -4.016984
v -10.429630 3.820456 -2.591166
v -5.529342 3.820456 -2.591166
v -5.529342 -3.465891 -2.591167
v -10.429630 -3.465891 -2.591167
v -11.965616 -3.942043 -4.016985
v -3.993354 -3.942043 -4.016985
v -3.993354 -3.942044 4.016133
v -11.965616 -3.942044 4.016133
v -5.503265 -3.458952 2.438435
v -5.503265 -3.458951 -2.473953
v -5.503265 3.813517 -2.473952
v -5.503265 3.813516 2.438436
v -10.412205 -3.497870 -2.436519
v -10.412205 -3.497871 2.401001
v -10.412205 3.852431 2.401002
v -10.412205 3.852432 -2.436518
v -3.993354 -3.261578 -3.183028
v -3.993354 -3.261579 3.182176
v -3.993354 3.438676 -3.183027
v -3.993354 3.438675 3.182177
v -4.804719 3.447667 -4.016984
v -11.154251 3.447667 -4.016984
v -4.804719 -3.270570 -4.016985
v -11.154251 -3.270570 -4.016985
v -11.965616 -3.312005 3.133673
v -11.965616 -3.312004 -3.134525
v -11.965616 3.489101 3.133674
v -11.965616 3.489102 -3.134524
v -4.853454 -3.320509 4.016133
v -11.105518 -3.320509 4.016133
v -4.853454 3.497605 4.016134
v -11.105518 3.497605 4.016134
v -2.392022 -3.504430 2.397096
v 2.433051 -3.504430 2.397096
v 2.433051 3.858993 2.397098
v -2.392022 3.858993 2.397098
v -3.965616 4.074708 4.016135
v 4.006646 4.074708 4.016135
v 4.006646 4.074710 -4.016984
v -3.965616 4.074710 -4.016984
v -2.429629 3.820456 -2.591166
v 2.470658 3.820456 -2.591166
v 2.470658 -3.465891 -2.591167
v -2.429629 -3.465891 -2.591167
v -3.965616 -3.942043 -4.016985
v 4.006646 -3.942043 -4.016985
v 4.006646 -3.942044 4.016133
v -3.965616 -3.942044 4.016133
v 2.496734 -3.458952 2.438435
v 2.496734 -3.458951 -2.473953
v 2.496734 3.813517 -2.473952
v 2.496734 3.813516 2.438436
v -2.412205 -3.497870 -2.436519
v -2.412205 -3.497871 2.401001
v -2.412205 3.852431 2.401002
v -2.412205 3.852432 -2.436518
v 4.006646 -3.261578 -3.183028
v 4.006646 -3.261579 3.182176
v 4.006646 3.438676 -3.183027
v 4.006646 3.438675 3.182177
v 3.195281 3.447667 -4.016984
v -3.154251 3.447667 -4.016984
v 3.195281 -3.270570 -4.016985
v -3.154251 -3.270570 -4.016985
v -3.965616 -3.312005 3.133673
v -3.965616 -3.312004 -3.134525
v -3.965616 3.489101 3.133674
v -3.965616 3.489102 -3.134524
v 3.146546 -3.320509 4.016133
v -3.105517 -3.320509 4.016133
v 3.146546 3.497605 4.016134
v -3.105517 3.497605 4.016134
vt 0.432551 0.088110
vt 0.458903 0.088640
vt 0.458669 0.462498
vt 0.432736 0.461990
vt 0.419321 0.477170
vt 0.472299 0.477020
vt 0.471958 0.521532
vt 0.420283 0.521798
vt 0.432991 0.537962
vt 0.459563 0.538285
vt 0.461121 0.909511
vt 0.434854 0.909168
vt 0.422448 0.936335
vt 0.473861 0.936084
vt 0.471739 0.980686
vt 0.424888 0.980875
vt 0.486503 0.090541
vt 0.513045 0.091077
vt 0.512719 0.459140
vt 0.485954 0.459887
vt 0.378420 0.088869
vt 0.404686 0.088271
vt 0.405476 0.462375
vt 0.379117 0.461804
vt 0.472812 0.063077
vt 0.526617 0.063033
vt 0.522057 0.077527
vt 0.477326 0.077653
vt 0.526094 0.476952
vt 0.521516 0.466225
vt 0.476922 0.466430
vt 0.467550 0.531593
vt 0.424784 0.531926
vt 0.469429 0.922107
vt 0.426752 0.922383
vt 0.364677 0.063039
vt 0.418527 0.063120
vt 0.413699 0.074879
vt 0.369537 0.074889
vt 0.414401 0.469206
vt 0.365567 0.477127
vt 0.370460 0.469272
vt 0.468040 0.074403
vt 0.423298 0.074516
vt 0.467590 0.469519
vt 0.424027 0.469748
vt 0.432551 0.088110
vt 0.458903 0.088640
vt 0.458669 0.462498
vt 0.432736 0.461990
vt 0.419321 0.477170
vt 0.472299 0.477020
vt 0.471958 0.521532
vt 0.420283 0.521798
vt 0.432991 0.537962
vt 0.459563 0.538285
vt 0.461121 0.909511
vt 0.434854 0.909168
vt 0.422448 0.936335
vt 0.473861 0.936084
vt 0.471739 0.980686
vt 0.424888 0.980875
vt 0.486503 0.090541
vt 0.513045 0.091077
vt 0.512719 0.459140
vt 0.485954 0.459887
vt 0.378420 0.088869
vt 0.404686 0.088271
vt 0.405476 0.462375
vt 0.379117 0.461804
vt 0.472812 0.063077
vt 0.526617 0.063033
vt 0.522057 0.077527
vt 0.477326 0.077653
vt 0.526094 0.476952
vt 0.521516 0.466225
vt 0.476922 0.466430
vt 0.467550 0.531593
vt 0.424784 0.531926
vt 0.469429 0.922107
vt 0.426752 0.922383
vt 0.364677 0.063039
vt 0.418527 0.063120
vt 0.413699 0.074879
vt 0.369537 0.074889
vt 0.414401 0.469206
vt 0.365567 0.477127
vt 0.370460 0.469272
vt 0.468040 0.074403
vt 0.423298 0.074516
vt 0.467590 0.469519
vt 0.424027 0.469748
vt 0.432551 0.088110
vt 0.458903 0.088640
vt 0.458669 0.462498
vt 0.432736 0.461990
vt 0.419321 0.477170
vt 0.472299 0.477020
vt 0.471958 0.521532
vt 0.420283 0.521798
vt 0.432991 0.537962
vt 0.459563 0.538285
vt 0.461121 0.909511
vt 0.434854 0.909168
vt 0.422448 0.936335
vt 0.473861 0.936084
vt 0.471739 0.980686
vt 0.424888 0.980875
vt 0.486503 0.090541
vt 0.513045 0.091077
vt 0.512719 0.459140
vt 0.485954 0.459887
vt 0.378420 0.088869
vt 0.404686 0.088271
vt 0.405476 0.462375
vt 0.379117 0.461804
vt 0.472812 0.063077
vt 0.526617 0.063033
vt 0.522057 0.077527
vt 0.477326 0.077653
vt 0.526094 0.476952
vt 0.521516 0.466225
vt 0.476922 0.466430
vt 0.467550 0.531593
vt 0.424784 0.531926
vt 0.469429 0.922107
vt 0.426752 0.922383
vt 0.364677 0.063039
vt 0.418527 0.063120
vt 0.413699 0.074879
vt 0.369537 0.074889
vt 0.414401 0.469206
vt 0.365567 0.477127
vt 0.370460 0.469272
vt 0.468040 0.074403
vt 0.423298 0.074516
vt 0.467590 0.469519
vt 0.424027 0.469748
vn 0.0000 -0.0000 1.0000
vn 0.0000 1.0000 0.0000
vn 0.0000 0.0000 -1.0000
vn 0.0000 -1.0000 -0.0000
vn 1.0000 0.0000 0.0000
vn -1.0000 0.0000 0.0000
vn 0.0622 0.9981 0.0004
vn 0.0622 0.9981 -0.0004
vn 0.0622 0.9981 -0.0010
vn 0.0622 0.9981 0.0010
vn 0.0034 0.0216 0.9998
vn 0.0043 -0.0358 0.9994
vn 0.0031 -0.0135 0.9999
vn 0.0030 0.0077 1.0000
vn 0.1104 -0.9939 -0.0017
vn 0.1104 -0.9939 0.0017
vn 0.1104 -0.9939 0.0044
vn 0.1104 -0.9939 -0.0043
vn 0.0044 -0.0370 -0.9993
vn 0.0035 0.0223 -0.9997
vn 0.0031 0.0080 -1.0000
vn 0.0032 -0.0139 -0.9999
vn -0.0013 -0.9930 -0.1177
vn 0.0013 -0.9930 -0.1177
vn 0.0034 -0.9930 -0.1177
vn -0.0034 -0.9930 -0.1177
vn -0.9992 -0.0401 0.0015
vn -0.9997 0.0243 0.0025
vn -1.0000 0.0087 0.0030
vn -0.9999 -0.0151 0.0029
vn 0.0001 0.9978 -0.0665
vn -0.0001 0.9978 -0.0665
vn -0.0002 0.9978 -0.0665
vn 0.0002 0.9978 -0.0665
vn 0.9997 0.0243 0.0025
vn 0.9992 -0.0401 0.0015
vn 0.9999 -0.0151 0.0029
vn 1.0000 0.0087 0.0030
vn -0.0572 0.9984 -0.0003
vn -0.0572 0.9984 0.0003
vn -0.0572 0.9984 0.0009
vn -0.0572 0.9984 -0.0008
vn -0.0034 0.0201 -0.9998
vn -0.0042 -0.0344 -0.9994
vn -0.0031 -0.0129 -0.9999
vn -0.0030 0.0071 -1.0000
vn -0.1051 -0.9945 0.0014
vn -0.1051 -0.9945 -0.0014
vn -0.1051 -0.9945 -0.0036
vn -0.1051 -0.9945 0.0037
vn -0.0041 -0.0332 0.9994
vn -0.0033 0.0194 0.9998
vn -0.0029 0.0069 1.0000
vn -0.0030 -0.0125 0.9999
vn -0.0000 0.9985 0.0556
vn -0.9998 0.0188 -0.0024
vn -0.9995 -0.0326 -0.0016
vn -0.9999 -0.0121 -0.0026
vn -1.0000 0.0066 -0.0027
vn 0.0008 -0.9946 0.1033
vn -0.0008 -0.9946 0.1033
vn -0.0019 -0.9946 0.1033
vn 0.0019 -0.9946 0.1033
vn 0.9995 -0.0326 -0.0016
vn 0.9998 0.0188 -0.0024
vn 1.0000 0.0066 -0.0027
vn 0.9999 -0.0121 -0.0026
usemtl lambertDef
s 1
f 1/1/1 2/2/1 3/3/1 4/4/1
f 5/5/2 6/6/2 7/7/2 8/8/2
f 9/9/3 10/10/3 11/11/3 12/12/3
f 13/13/4 14/14/4 15/15/4 16/16/4
f 17/17/5 18/18/5 19/19/5 20/20/5
f 21/21/6 22/22/6 23/23/6 24/24/6
f 15/25/5 14/26/5 25/27/5 26/28/5
f 14/26/5 7/29/5 27/30/5 25/27/5
f 7/29/5 6/6/5 28/31/5 27/30/5
f 6/6/5 15/25/5 26/28/5 28/31/5
f 26/28/7 25/27/8 18/18/9 17/17/10
f 25/27/11 27/30/12 19/19/13 18/18/14
f 27/30/15 28/31/16 20/20/17 19/19/18
f 28/31/19 26/28/20 17/17/21 20/20/22
f 8/8/3 7/7/3 29/32/3 30/33/3
f 7/7/3 14/14/3 31/34/3 29/32/3
f 14/14/3 13/13/3 32/35/3 31/34/3
f 13/13/3 8/8/3 30/33/3 32/35/3
f 30/33/23 29/32/24 10/10/25 9/9/26
f 29/32/27 31/34/28 11/11/29 10/10/30
f 31/34/31 32/35/32 12/12/33 11/11/34
f 32/35/35 30/33/36 9/9/37 12/12/38
f 13/36/6 16/37/6 33/38/6 34/39/6
f 16/37/6 5/5/6 35/40/6 33/38/6
f 5/5/6 8/41/6 36/42/6 35/40/6
f 8/41/6 13/36/6 34/39/6 36/42/6
f 34/39/39 33/38/40 22/22/41 21/21/42
f 33/38/43 35/40/44 23/23/45 22/22/46
f 35/40/47 36/42/48 24/24/49 23/23/50
f 36/42/51 34/39/52 21/21/53 24/24/54
f 16/37/1 15/25/1 37/43/1 38/44/1
f 15/25/1 6/6/1 39/45/1 37/43/1
f 6/6/1 5/5/1 40/46/1 39/45/1
f 5/5/1 16/37/1 38/44/1 40/46/1
f 38/44/55 37/43/55 2/2/55 1/1/55
f 37/43/56 39/45/57 3/3/58 2/2/59
f 39/45/60 40/46/61 4/4/62 3/3/63
f 40/46/64 38/44/65 1/1/66 4/4/67
usemtl lambertDef
f 41/47/1 42/48/1 43/49/1 44/50/1
f 45/51/2 46/52/2 47/53/2 48/54/2
f 49/55/3 50/56/3 51/57/3 52/58/3
f 53/59/4 54/60/4 55/61/4 56/62/4
f 57/63/5 58/64/5 59/65/5 60/66/5
f 61/67/6 62/68/6 63/69/6 64/70/6
f 55/71/5 54/72/5 65/73/5 66/74/5
f 54/72/5 47/75/5 67/76/5 65/73/5
f 47/75/5 46/52/5 68/77/5 67/76/5
f 46/52/5 55/71/5 66/74/5 68/77/5
f 66/74/7 65/73/8 58/64/9 57/63/10
f 65/73/11 67/76/12 59/65/13 58/64/14
f 67/76/15 68/77/16 60/66/17 59/65/18
f 68/77/19 66/74/20 57/63/21 60/66/22
f 48/54/3 47/53/3 69/78/3 70/79/3
f 47/53/3 54/60/3 71/80/3 69/78/3
f 54/60/3 53/59/3 72/81/3 71/80/3
f 53/59/3 48/54/3 70/79/3 72/81/3
f 70/79/23 69/78/24 50/56/25 49/55/26
f 69/78/27 71/80/28 51/57/29 50/56/30
f 71/80/31 72/81/32 52/58/33 51/57/34
f 72/81/35 70/79/36 49/55/37 52/58/38
f 53/82/6 56/83/6 73/84/6 74/85/6
f 56/83/6 45/51/6 75/86/6 73/84/6
f 45/51/6 48/87/6 76/88/6 75/86/6
f 48/87/6 53/82/6 74/85/6 76/88/6
f 74/85/39 73/84/40 62/68/41 61/67/42
f 73/84/43 75/86/44 63/69/45 62/68/46
f 75/86/47 76/88/48 64/70/49 63/69/50
f 76/88/51 74/85/52 61/67/53 64/70/54
f 56/83/1 55/71/1 77/89/1 78/90/1
f 55/71/1 46/52/1 79/91/1 77/89/1
f 46/52/1 45/51/1 80/92/1 79/91/1
f 45/51/1 56/83/1 78/90/1 80/92/1
f 78/90/55 77/89/55 42/48/55 41/47/55
f 77/89/56 79/91/57 43/49/58 42/48/59
f 79/91/60 80/92/61 44/50/62 43/49/63
f 80/92/64 78/90/65 41/47/66 44/50/67
usemtl lambertDef
f 81/93/1 82/94/1 83/95/1 84/96/1
f 85/97/2 86/98/2 87/99/2 88/100/2
f 89/101/3 90/102/3 91/103/3 92/104/3
f 93/105/4 94/106/4 95/107/4 96/108/4
f 97/109/5 98/110/5 99/111/5 100/112/5
f 101/113/6 102/114/6 103/115/6 104/116/6
f 95/117/5 94/118/5 105/119/5 106/120/5
f 94/118/5 87/121/5 107/122/5 105/119/5
f 87/121/5 86/98/5 108/123/5 107/122/5
f 86/98/5 95/117/5 106/120/5 108/123/5
f 106/120/7 105/119/8 98/110/9 97/109/10
f 105/119/11 107/122/12 99/111/13 98/110/14
f 107/122/15 108/123/16 100/112/17 99/111/18
f 108/123/19 106/120/20 97/109/21 100/112/22
f 88/100/3 87/99/3 109/124/3 110/125/3
f 87/99/3 94/106/3 111/126/3 109/124/3
f 94/106/3 93/105/3 112/127/3 111/126/3
f 93/105/3 88/100/3 110/125/3 112/127/3
f 110/125/23 109/124/24 90/102/25 89/101/26
f 109/124/27 111/126/28 91/103/29 90/102/30
f 111/126/31 112/127/32 92/104/33 91/103/34
f 112/127/35 110/125/36 89/101/37 92/104/38
f 93/128/6 96/129/6 113/130/6 114/131/6
f 96/129/6 85/97/6 115/132/6 113/130/6
f 85/97/6 88/133/6 116/134/6 115/132/6
f 88/133/6 93/128/6 114/131/6 116/134/6
f 114/131/39 113/130/40 102/114/41 101/113/42
f 113/130/43 115/132/44 103/115/45 102/114/46
f 115/132/47 116/134/48 104/116/49 103/115/50
f 116/134/51 114/131/52 101/113/53 104/116/54
f 96/129/1 95/117/1 117/135/1 118/136/1
f 95/117/1 86/98/1 119/137/1 117/135/1
f 86/98/1 85/97/1 120/138/1 119/137/1
f 85/97/1 96/129/1 118/136/1 120/138/1
f 118/136/55 117/135/55 82/94/55 81/93/55
f 117/135/56 119/137/57 83/95/58 82/94/59
f 119/137/60 120/138/61 84/96/62 83/95/63
f 120/138/64 118/136/65 81/93/66 84/96/67
