# This file uses centimeters as units for non-parametric coordinates.

mtllib ../Materials/Door6.mtl
g default
v 241.768642 3.167563 373.876228
v 240.676204 3.167563 373.876228
v 241.768642 13.997789 373.441948
v 240.676204 13.465294 373.441948
v 240.133296 16.292561 373.478310
v 239.503291 15.138093 373.478310
v 237.841121 16.292561 373.478310
v 237.841121 15.138093 373.478310
v 233.913509 3.167559 373.876228
v 235.005977 3.167559 373.876228
v 233.913509 13.997789 373.441948
v 235.005977 13.465294 373.441948
v 235.548854 16.292561 373.478310
v 236.178859 15.138093 373.478310
v 241.768642 3.457992 373.441917
v 240.676204 3.457992 373.441948
v 235.005977 3.457992 373.441948
v 233.913509 3.457992 373.441917
v 237.841121 13.465294 373.441948
v 237.841121 3.457992 373.441948
v 237.841121 3.167563 373.876228
v 239.660609 9.680853 373.001183
v 239.153377 9.680853 373.001183
v 239.660609 13.165300 373.001183
v 239.153377 12.903557 373.001183
v 239.660609 13.165300 373.876228
v 239.153377 12.903557 373.876228
v 239.660609 9.680853 373.876228
v 239.153377 9.680853 373.876228
v 238.901363 14.293277 373.019051
v 238.608852 13.725807 373.019051
v 238.608852 13.725807 373.876228
v 238.901363 14.293277 373.876228
v 237.837123 14.293277 373.019051
v 237.837123 13.725807 373.019051
v 237.837123 13.725807 373.876228
v 237.837123 14.293277 373.876228
v 236.013698 9.680853 373.001183
v 236.520839 9.680853 373.001183
v 236.013698 13.165300 373.001183
v 236.520839 12.903557 373.001183
v 236.013698 13.165300 373.876228
v 236.520839 12.903557 373.876228
v 236.013698 9.680853 373.876228
v 236.520839 9.680853 373.876228
v 236.772914 14.293277 373.019051
v 237.065456 13.725807 373.019051
v 237.065456 13.725807 373.876228
v 236.772914 14.293277 373.876228
v 239.660609 10.272556 373.001183
v 239.153377 10.272556 373.001183
v 239.660609 10.272556 373.876228
v 239.153377 10.272556 373.876228
v 236.520839 10.272556 373.001183
v 236.013698 10.272556 373.001183
v 236.520839 10.272556 373.876228
v 236.013698 10.272556 373.876228
v 234.283015 7.951320 373.432243
v 234.630366 7.951320 373.432243
v 234.804042 7.951320 373.131432
v 234.630366 7.951320 372.830635
v 234.283015 7.951320 372.830635
v 234.109340 7.951320 373.131432
v 234.175655 8.246783 373.618141
v 234.737727 8.246783 373.618141
v 235.018672 8.246783 373.131432
v 234.737727 8.246783 372.644737
v 234.175655 8.246783 372.644737
v 233.894710 8.246783 373.131432
v 234.175655 8.611997 373.618141
v 234.737727 8.611997 373.618141
v 235.018672 8.611997 373.131432
v 234.737727 8.611997 372.644737
v 234.175655 8.611997 372.644737
v 233.894710 8.611997 373.131432
v 234.283015 8.907460 373.432243
v 234.630366 8.907460 373.432243
v 234.804042 8.907460 373.131432
v 234.630366 8.907460 372.830635
v 234.283015 8.907460 372.830635
v 234.109340 8.907460 373.131432
v 234.456691 7.838466 373.131432
v 234.456691 9.020317 373.131432
v 241.768642 13.997789 373.876228
v 241.768642 3.167563 373.876228
v 240.133296 16.292561 373.876228
v 237.841121 16.292561 373.876228
v 233.913509 3.167559 373.876228
v 233.913509 13.997789 373.876228
v 235.548854 16.292561 373.876228
v 241.768642 3.457992 373.876228
v 233.913509 3.457992 373.876228
v 241.768642 13.997789 374.310509
v 240.676204 13.465294 374.310509
v 240.133296 16.292561 374.274147
v 239.503291 15.138093 374.274147
v 237.841121 16.292561 374.274147
v 237.841121 15.138093 374.274147
v 233.913509 13.997789 374.310509
v 235.005977 13.465294 374.310509
v 235.548854 16.292561 374.274147
v 236.178859 15.138093 374.274147
v 241.768642 3.457992 374.310539
v 240.676204 3.457992 374.310509
v 235.005977 3.457992 374.310509
v 233.913509 3.457992 374.310539
v 237.841121 13.465294 374.310509
v 237.841121 3.457992 374.310509
v 239.660609 9.680853 374.751274
v 239.153377 9.680853 374.751274
v 239.660609 13.165300 374.751274
v 239.153377 12.903557 374.751274
v 238.901363 14.293277 374.733406
v 238.608852 13.725807 374.733406
v 237.837123 14.293277 374.733406
v 237.837123 13.725807 374.733406
v 236.013698 9.680853 374.751274
v 236.520839 9.680853 374.751274
v 236.013698 13.165300 374.751274
v 236.520839 12.903557 374.751274
v 236.772914 14.293277 374.733406
v 237.065456 13.725807 374.733406
v 239.660609 10.272556 374.751274
v 239.153377 10.272556 374.751274
v 236.520839 10.272556 374.751274
v 236.013698 10.272556 374.751274
v 234.283015 7.951320 374.320213
v 234.630366 7.951320 374.320213
v 234.804042 7.951320 374.621025
v 234.630366 7.951320 374.921822
v 234.283015 7.951320 374.921822
v 234.109340 7.951320 374.621025
v 234.175655 8.246783 374.134315
v 234.737727 8.246783 374.134315
v 235.018672 8.246783 374.621025
v 234.737727 8.246783 375.107719
v 234.175655 8.246783 375.107719
v 233.894710 8.246783 374.621025
v 234.175655 8.611997 374.134315
v 234.737727 8.611997 374.134315
v 235.018672 8.611997 374.621025
v 234.737727 8.611997 375.107719
v 234.175655 8.611997 375.107719
v 233.894710 8.611997 374.621025
v 234.283015 8.907460 374.320213
v 234.630366 8.907460 374.320213
v 234.804042 8.907460 374.621025
v 234.630366 8.907460 374.921822
v 234.283015 8.907460 374.921822
v 234.109340 8.907460 374.621025
v 234.456691 7.838466 374.621025
v 234.456691 9.020317 374.621025
vt 0.034550 0.020165
vt 0.110084 0.020165
vt 0.125644 0.089177
vt 0.056106 0.089177
vt 0.056106 0.795962
vt 0.125644 0.760254
vt 0.200303 0.872429
vt 0.160201 0.949846
vt 0.306107 0.872429
vt 0.306107 0.949846
vt 0.577668 0.020165
vt 0.556112 0.089177
vt 0.486574 0.089177
vt 0.502134 0.020165
vt 0.556112 0.795962
vt 0.452017 0.949846
vt 0.411915 0.872429
vt 0.486574 0.760254
vt 0.306107 0.089177
vt 0.306107 0.020165
vt 0.306107 0.760254
vt 0.674301 0.322301
vt 0.713114 0.328318
vt 0.713114 0.370468
vt 0.674301 0.365994
vt 0.662559 0.306655
vt 0.701378 0.306655
vt 0.662559 0.354362
vt 0.674301 0.579602
vt 0.713114 0.557883
vt 0.749933 0.616455
vt 0.727519 0.662895
vt 0.724851 0.549388
vt 0.756814 0.600236
vt 0.662559 0.587595
vt 0.720665 0.678541
vt 0.802115 0.616455
vt 0.802115 0.662895
vt 0.802115 0.600236
vt 0.802116 0.678541
vt 0.929925 0.322301
vt 0.929925 0.365994
vt 0.891116 0.370468
vt 0.891116 0.328318
vt 0.941667 0.306655
vt 0.902853 0.306655
vt 0.941667 0.354362
vt 0.929925 0.579602
vt 0.876707 0.662895
vt 0.854293 0.616455
vt 0.891116 0.557883
vt 0.847412 0.600236
vt 0.879380 0.549388
vt 0.941667 0.587595
vt 0.883561 0.678541
vt 0.724851 0.386686
vt 0.879380 0.386686
vt 0.708873 0.791356
vt 0.740009 0.791356
vt 0.740009 0.828719
vt 0.708873 0.828719
vt 0.771144 0.791356
vt 0.771144 0.828719
vt 0.802280 0.791356
vt 0.802280 0.828719
vt 0.833416 0.791356
vt 0.833416 0.828719
vt 0.864551 0.791356
vt 0.864551 0.828719
vt 0.895687 0.791356
vt 0.895687 0.828719
vt 0.740009 0.866082
vt 0.708873 0.866082
vt 0.771144 0.866082
vt 0.802280 0.866082
vt 0.833416 0.866082
vt 0.864551 0.866082
vt 0.895687 0.866082
vt 0.740009 0.903444
vt 0.708873 0.903444
vt 0.771144 0.903444
vt 0.802280 0.903444
vt 0.833416 0.903444
vt 0.864551 0.903444
vt 0.895687 0.903444
vt 0.724441 0.753994
vt 0.755577 0.753994
vt 0.786712 0.753994
vt 0.817848 0.753994
vt 0.848983 0.753994
vt 0.880119 0.753994
vt 0.724441 0.940807
vt 0.755577 0.940807
vt 0.786712 0.940807
vt 0.817848 0.940807
vt 0.848983 0.940807
vt 0.880119 0.940807
vt 0.046857 0.809147
vt 0.034550 0.020165
vt 0.155255 0.963389
vt 0.306107 0.963389
vt 0.577668 0.020165
vt 0.565362 0.809147
vt 0.456963 0.963389
vt 0.046856 0.095039
vt 0.565362 0.095039
vt 0.034550 0.020165
vt 0.110084 0.020165
vt 0.125644 0.089177
vt 0.056106 0.089177
vt 0.056106 0.795962
vt 0.125644 0.760254
vt 0.200303 0.872429
vt 0.160201 0.949846
vt 0.306107 0.872429
vt 0.306107 0.949846
vt 0.577668 0.020165
vt 0.556112 0.089177
vt 0.486574 0.089177
vt 0.502134 0.020165
vt 0.556112 0.795962
vt 0.452017 0.949846
vt 0.411915 0.872429
vt 0.486574 0.760254
vt 0.565362 0.095039
vt 0.565362 0.809147
vt 0.306107 0.089177
vt 0.306107 0.020165
vt 0.306107 0.760254
vt 0.674301 0.322301
vt 0.713114 0.328318
vt 0.713114 0.370468
vt 0.674301 0.365994
vt 0.662559 0.306655
vt 0.701378 0.306655
vt 0.662559 0.354362
vt 0.674301 0.579602
vt 0.713114 0.557883
vt 0.749933 0.616455
vt 0.727519 0.662895
vt 0.724851 0.549388
vt 0.756814 0.600236
vt 0.662559 0.587595
vt 0.720665 0.678541
vt 0.802115 0.616455
vt 0.802115 0.662895
vt 0.802115 0.600236
vt 0.802116 0.678541
vt 0.929925 0.322301
vt 0.929925 0.365994
vt 0.891116 0.370468
vt 0.891116 0.328318
vt 0.941667 0.306655
vt 0.902853 0.306655
vt 0.941667 0.354362
vt 0.929925 0.579602
vt 0.876707 0.662895
vt 0.854293 0.616455
vt 0.891116 0.557883
vt 0.847412 0.600236
vt 0.879380 0.549388
vt 0.941667 0.587595
vt 0.883561 0.678541
vt 0.724851 0.386686
vt 0.879380 0.386686
vt 0.708873 0.791356
vt 0.740009 0.791356
vt 0.740009 0.828719
vt 0.708873 0.828719
vt 0.771144 0.791356
vt 0.771144 0.828719
vt 0.802280 0.791356
vt 0.802280 0.828719
vt 0.833416 0.791356
vt 0.833416 0.828719
vt 0.864551 0.791356
vt 0.864551 0.828719
vt 0.895687 0.791356
vt 0.895687 0.828719
vt 0.740009 0.866082
vt 0.708873 0.866082
vt 0.771144 0.866082
vt 0.802280 0.866082
vt 0.833416 0.866082
vt 0.864551 0.866082
vt 0.895687 0.866082
vt 0.740009 0.903444
vt 0.708873 0.903444
vt 0.771144 0.903444
vt 0.802280 0.903444
vt 0.833416 0.903444
vt 0.864551 0.903444
vt 0.895687 0.903444
vt 0.724441 0.753994
vt 0.755577 0.753994
vt 0.786712 0.753994
vt 0.817848 0.753994
vt 0.848983 0.753994
vt 0.880119 0.753994
vt 0.724441 0.940807
vt 0.755577 0.940807
vt 0.786712 0.940807
vt 0.817848 0.940807
vt 0.848983 0.940807
vt 0.880119 0.940807
vt 0.046856 0.095039
vt 0.034550 0.020165
vt 0.155255 0.963389
vt 0.046857 0.809147
vt 0.306107 0.963389
vt 0.577668 0.020165
vt 0.456963 0.963389
vn -0.000008 -0.831256 -0.555890
vn -0.000002 -0.831245 -0.555906
vn -0.000013 -0.136660 -0.990618
vn -0.000014 -0.041075 -0.999156
vn -0.002606 0.002648 -0.999993
vn -0.001924 0.001952 -0.999996
vn -0.005875 0.005992 -0.999965
vn -0.006039 0.006159 -0.999963
vn 0.000000 0.000003 -1.000000
vn 0.000000 0.000003 -1.000000
vn 0.000008 -0.831258 -0.555887
vn 0.000014 -0.041074 -0.999156
vn 0.000014 -0.041075 -0.999156
vn 0.000008 -0.831258 -0.555887
vn 0.002606 0.002652 -0.999993
vn 0.006039 0.006171 -0.999963
vn 0.005875 0.006003 -0.999965
vn 0.001924 0.001955 -0.999996
vn -1.000000 0.000000 -0.000000
vn -1.000000 0.000000 -0.000000
vn -0.992520 0.122080 -0.000000
vn -0.992620 0.121264 -0.000000
vn 0.000000 -0.831237 -0.555917
vn 0.000000 -0.831238 -0.555917
vn 0.000000 -0.831234 -0.555923
vn 0.000000 -0.831234 -0.555923
vn 0.000000 0.021730 -0.999764
vn 0.000000 0.002544 -0.999997
vn 0.000000 0.001628 -0.999999
vn 0.000000 0.021729 -0.999764
vn 0.000000 0.000000 -1.000000
vn 0.000000 0.001628 -0.999999
vn 0.000000 0.000000 -1.000000
vn 0.000000 0.021730 -0.999764
vn 0.000000 0.000000 -1.000000
vn 0.000000 0.000000 -1.000000
vn 0.000000 0.000000 -1.000000
vn 0.000000 0.000000 -1.000000
vn 0.000000 0.000000 -1.000000
vn 0.000000 -1.000000 0.000000
vn 0.000000 -1.000000 0.000000
vn 0.000000 -1.000000 0.000000
vn 0.000000 -1.000000 0.000000
vn 1.000000 0.000000 0.000000
vn 1.000000 0.000000 0.000000
vn 1.000000 0.000000 0.000000
vn 1.000000 0.000000 0.000000
vn -0.004322 0.004166 -0.999982
vn -0.003128 0.003016 -0.999991
vn -0.006317 0.006090 -0.999961
vn -0.006204 0.005981 -0.999963
vn -0.988189 -0.153239 0.000000
vn -0.987981 -0.154573 0.000000
vn -0.532123 -0.846667 0.000000
vn -0.534672 -0.845059 0.000000
vn 0.982883 0.184232 0.000000
vn 0.983084 0.183153 0.000000
vn 0.530212 0.847865 0.000000
vn 0.528370 0.849014 0.000000
vn 0.000000 0.000000 -1.000000
vn 0.000000 0.000000 -1.000000
vn 0.000000 -1.000000 0.000000
vn 0.000000 -1.000000 0.000000
vn 0.000000 1.000000 0.000000
vn 0.000000 1.000000 0.000000
vn 0.000000 0.000000 -1.000000
vn 0.000000 0.000000 -1.000000
vn 0.000000 0.000000 -1.000000
vn 0.000000 0.000000 -1.000000
vn 0.000000 -1.000000 0.000000
vn 0.000000 -1.000000 0.000000
vn 0.000000 -1.000000 0.000000
vn 0.000000 -1.000000 0.000000
vn -1.000000 0.000000 -0.000000
vn -1.000000 0.000000 -0.000000
vn -1.000000 0.000000 -0.000000
vn -1.000000 0.000000 -0.000000
vn 0.004323 0.004167 -0.999982
vn 0.006205 0.005981 -0.999963
vn 0.006317 0.006090 -0.999961
vn 0.003129 0.003016 -0.999991
vn 0.988185 -0.153266 0.000000
vn 0.534664 -0.845064 0.000000
vn 0.532114 -0.846673 0.000000
vn 0.987977 -0.154599 0.000000
vn -0.982884 0.184226 -0.000000
vn -0.528382 0.849007 -0.000000
vn -0.530223 0.847858 -0.000000
vn -0.983085 0.183149 -0.000000
vn -1.000000 0.000000 -0.000000
vn -1.000000 0.000000 -0.000000
vn 1.000000 0.000000 0.000000
vn 1.000000 0.000000 0.000000
vn 0.000000 -1.000000 0.000000
vn 0.000000 -1.000000 0.000000
vn 0.000000 1.000000 0.000000
vn 0.000000 1.000000 0.000000
vn 0.000000 1.000000 0.000000
vn 0.000000 1.000000 0.000000
vn 0.000000 0.000000 -1.000000
vn 0.000000 0.000000 -1.000000
vn -0.370057 -0.672462 0.640978
vn 0.370060 -0.672459 0.640980
vn 0.484878 -0.244105 0.839825
vn -0.484877 -0.244107 0.839825
vn 0.740139 -0.672454 0.000003
vn 0.969745 -0.244121 0.000002
vn 0.370035 -0.672472 -0.640979
vn 0.484861 -0.244120 -0.839830
vn -0.370041 -0.672469 -0.640980
vn -0.484863 -0.244119 -0.839830
vn -0.740139 -0.672453 -0.000002
vn -0.969745 -0.244121 -0.000000
vn 0.484876 0.244110 0.839825
vn -0.484877 0.244108 0.839825
vn 0.969743 0.244129 0.000002
vn 0.484860 0.244125 -0.839830
vn -0.484863 0.244122 -0.839829
vn -0.969744 0.244125 0.000001
vn 0.370054 0.672466 0.640976
vn -0.370057 0.672459 0.640981
vn 0.740128 0.672466 0.000002
vn 0.370033 0.672478 -0.640975
vn -0.370039 0.672469 -0.640981
vn -0.740137 0.672456 -0.000001
vn 0.000000 -1.000000 -0.000001
vn 0.000000 1.000000 -0.000001
vn 1.000000 0.000000 0.000000
vn 0.000000 0.000000 0.000000
vn 0.000000 0.000000 0.000000
vn 1.000000 0.000000 0.000000
vn 0.514226 0.857655 0.000000
vn 0.992520 0.122080 0.000000
vn 0.992620 0.121264 0.000000
vn 0.515988 0.856596 0.000000
vn 0.000000 1.000000 0.000000
vn 0.000000 1.000000 0.000000
vn -0.000000 0.000000 -0.000000
vn -0.000000 0.000000 -0.000000
vn -0.514215 0.857661 -0.000000
vn -0.515981 0.856600 -0.000000
vn -0.000008 -0.831256 0.555890
vn -0.000014 -0.041075 0.999156
vn -0.000013 -0.136664 0.990617
vn -0.000002 -0.831254 0.555892
vn -0.002606 0.002651 0.999993
vn -0.006039 0.006164 0.999963
vn -0.005875 0.005996 0.999965
vn -0.001924 0.001954 0.999996
vn 0.000000 -0.000002 1.000000
vn 0.000000 -0.000002 1.000000
vn 0.000008 -0.831258 0.555887
vn 0.000008 -0.831258 0.555887
vn 0.000014 -0.041075 0.999156
vn 0.000014 -0.041074 0.999156
vn 0.002606 0.002651 0.999993
vn 0.001924 0.001954 0.999996
vn 0.005875 0.005998 0.999965
vn 0.006039 0.006165 0.999963
vn -1.000000 0.000000 -0.000000
vn -0.992621 0.121258 -0.000000
vn 0.000000 -0.831250 0.555898
vn 0.000000 -0.831247 0.555904
vn 0.000000 -0.831247 0.555904
vn 0.000000 -0.831250 0.555898
vn 0.000000 0.021732 0.999764
vn 0.000000 0.021721 0.999764
vn 0.000000 0.001628 0.999999
vn 0.000000 0.002545 0.999997
vn 0.000000 0.000000 1.000000
vn 0.000000 0.000000 1.000000
vn 0.000000 0.001629 0.999999
vn 0.000000 0.021742 0.999764
vn 0.000000 0.000000 1.000000
vn 0.000000 0.000000 1.000000
vn 0.000000 0.000000 1.000000
vn 0.000000 0.000000 1.000000
vn 0.000000 0.000000 1.000000
vn 0.000000 -1.000000 0.000000
vn 0.000000 -1.000000 0.000000
vn 1.000000 0.000000 0.000000
vn 1.000000 0.000000 0.000000
vn -0.004322 0.004166 0.999982
vn -0.006204 0.005991 0.999963
vn -0.006317 0.006099 0.999961
vn -0.003128 0.003016 0.999991
vn -0.988189 -0.153241 0.000000
vn -0.534670 -0.845061 0.000000
vn 0.530212 0.847865 0.000000
vn 0.983084 0.183157 0.000000
vn 0.000000 0.000026 1.000000
vn 0.000000 0.000026 1.000000
vn 0.000000 -1.000000 0.000000
vn 0.000000 1.000000 0.000000
vn 0.000000 0.000000 1.000000
vn 0.000000 0.000000 1.000000
vn 0.000000 0.000000 1.000000
vn 0.000000 0.000000 1.000000
vn 0.000000 -1.000000 0.000000
vn 0.000000 -1.000000 0.000000
vn -1.000000 0.000000 -0.000000
vn -1.000000 0.000000 -0.000000
vn 0.004323 0.004176 0.999982
vn 0.003129 0.003022 0.999991
vn 0.006317 0.006115 0.999961
vn 0.006205 0.006007 0.999963
vn 0.988185 -0.153266 0.000000
vn 0.534659 -0.845068 0.000000
vn -0.983085 0.183149 -0.000000
vn -0.530223 0.847858 -0.000000
vn -1.000000 0.000000 -0.000000
vn 1.000000 0.000000 0.000000
vn 0.000000 -1.000000 0.000000
vn 0.000000 1.000000 0.000000
vn 0.000000 1.000000 0.000000
vn 0.000000 0.000000 1.000000
vn 0.000000 0.000000 1.000000
vn -0.370046 -0.672474 -0.640972
vn -0.484873 -0.244121 -0.839824
vn 0.484874 -0.244122 -0.839823
vn 0.370048 -0.672473 -0.640971
vn 0.969744 -0.244123 -0.000001
vn 0.740136 -0.672457 -0.000000
vn 0.484861 -0.244119 0.839831
vn 0.370035 -0.672472 0.640980
vn -0.484860 -0.244122 0.839830
vn -0.370033 -0.672475 0.640978
vn -0.969744 -0.244125 0.000000
vn -0.740133 -0.672461 0.000002
vn -0.484877 0.244121 -0.839821
vn 0.484875 0.244125 -0.839821
vn 0.969744 0.244124 -0.000000
vn 0.484863 0.244123 0.839829
vn -0.484863 0.244123 0.839829
vn -0.969745 0.244120 -0.000002
vn -0.370053 0.672471 -0.640970
vn 0.370050 0.672480 -0.640963
vn 0.740137 0.672456 0.000001
vn 0.370038 0.672479 0.640971
vn -0.370036 0.672476 0.640975
vn -0.740143 0.672450 -0.000001
vn 0.000000 -1.000000 0.000001
vn 0.000000 1.000000 0.000001
vn 1.000000 0.000000 0.000000
vn 0.516003 0.856587 0.000000
vn 0.992621 0.121258 0.000000
vn 0.000000 1.000000 0.000000
vn -0.515988 0.856596 -0.000000
s 1
g DoorMesh6
usemtl lambert26SG
f 1/1/1 2/2/2 16/3/3 15/4/4
f 3/5/5 4/6/6 6/7/7 5/8/8
f 5/8/8 6/7/7 8/9/9 7/10/10
f 9/11/11 18/12/12 17/13/13 10/14/14
f 11/15/15 13/16/16 14/17/17 12/18/18
f 13/16/16 7/10/10 8/9/9 14/17/17
f 15/4/4 16/3/3 4/6/6 3/5/5
f 17/13/13 18/12/12 11/15/15 12/18/18
s 3
f 18/12/19 92/106/20 89/103/21 11/15/22
s 1
f 20/19/23 21/20/24 10/14/25 17/13/26
s 4
f 8/9/27 19/21/28 12/18/29 14/17/30
f 20/19/31 19/21/28 4/6/32 16/3/33
f 6/7/34 4/6/32 19/21/28 8/9/27
s 1
f 16/3/3 2/2/2 21/20/24 20/19/23
s 4
f 12/18/29 19/21/28 20/19/31 17/13/35
s 5
f 22/22/36 23/23/37 51/24/38 50/25/39
s 6
f 28/26/40 29/27/41 23/23/42 22/22/43
s 7
f 28/26/44 22/22/45 50/25/46 52/28/47
s 5
f 24/29/48 25/30/49 31/31/50 30/32/51
s 8
f 25/30/52 27/33/53 32/34/54 31/31/55
s 7
f 26/35/56 24/29/57 30/32/58 33/36/59
s 5
f 30/32/51 31/31/50 35/37/60 34/38/61
s 8
f 31/31/55 32/34/54 36/39/62 35/37/63
s 7
f 33/36/59 30/32/58 34/38/64 37/40/65
s 5
f 38/41/66 55/42/67 54/43/68 39/44/69
s 10
f 44/45/70 38/41/71 39/44/72 45/46/73
s 7
f 44/45/74 57/47/75 55/42/76 38/41/77
s 5
f 40/48/78 46/49/79 47/50/80 41/51/81
s 8
f 41/51/82 47/50/83 48/52/84 43/53/85
s 7
f 42/54/86 49/55/87 46/49/88 40/48/89
s 5
f 46/49/79 34/38/61 35/37/60 47/50/80
s 8
f 47/50/83 35/37/63 36/39/62 48/52/84
s 7
f 49/55/87 37/40/65 34/38/64 46/49/88
s 5
f 50/25/39 51/24/38 25/30/49 24/29/48
s 8
f 51/24/90 53/56/91 27/33/53 25/30/52
s 7
f 52/28/47 50/25/46 24/29/57 26/35/56
s 5
f 54/43/68 55/42/67 40/48/78 41/51/81
s 8
f 56/57/92 54/43/93 41/51/82 43/53/85
s 7
f 55/42/76 57/47/75 42/54/86 40/48/89
s 6
f 23/23/42 29/27/41 45/46/94 39/44/95
s 13
f 53/56/96 51/24/97 54/43/98 56/57/99
s 5
f 51/24/38 23/23/37 39/44/100 54/43/101
s 14
f 58/58/102 59/59/103 65/60/104 64/61/105
f 59/59/103 60/62/106 66/63/107 65/60/104
f 60/62/106 61/64/108 67/65/109 66/63/107
f 61/64/108 62/66/110 68/67/111 67/65/109
f 62/66/110 63/68/112 69/69/113 68/67/111
f 63/68/112 58/70/102 64/71/105 69/69/113
f 64/61/105 65/60/104 71/72/114 70/73/115
f 65/60/104 66/63/107 72/74/116 71/72/114
f 66/63/107 67/65/109 73/75/117 72/74/116
f 67/65/109 68/67/111 74/76/118 73/75/117
f 68/67/111 69/69/113 75/77/119 74/76/118
f 69/69/113 64/71/105 70/78/115 75/77/119
f 70/73/115 71/72/114 77/79/120 76/80/121
f 71/72/114 72/74/116 78/81/122 77/79/120
f 72/74/116 73/75/117 79/82/123 78/81/122
f 73/75/117 74/76/118 80/83/124 79/82/123
f 74/76/118 75/77/119 81/84/125 80/83/124
f 75/77/119 70/78/115 76/85/121 81/84/125
f 59/59/103 58/58/102 82/86/126
f 60/62/106 59/59/103 82/87/126
f 61/64/108 60/62/106 82/88/126
f 62/66/110 61/64/108 82/89/126
f 63/68/112 62/66/110 82/90/126
f 58/70/102 63/68/112 82/91/126
f 76/80/121 77/79/120 83/92/127
f 77/79/120 78/81/122 83/93/127
f 78/81/122 79/82/123 83/94/127
f 79/82/123 80/83/124 83/95/127
f 80/83/124 81/84/125 83/96/127
f 81/84/125 76/85/121 83/97/127
s 3
f 91/105/128 85/99/129 1/1/130 15/4/131
f 86/100/132 84/98/133 3/5/134 5/8/135
f 87/101/136 86/100/132 5/8/135 7/10/137
f 88/102/138 92/106/20 18/12/19 9/11/139
f 89/103/21 90/104/140 13/16/141 11/15/22
f 90/104/140 87/101/136 7/10/137 13/16/141
f 84/98/133 91/105/128 15/4/131 3/5/134
s 17
f 1/107/142 103/110/143 104/109/144 2/108/145
f 93/111/146 95/114/147 96/113/148 94/112/149
f 95/114/147 97/116/150 98/115/151 96/113/148
f 9/117/152 10/120/153 105/119/154 106/118/155
f 99/121/156 100/124/157 102/123/158 101/122/159
f 101/122/159 102/123/158 98/115/151 97/116/150
f 103/110/143 93/111/146 94/112/149 104/109/144
f 105/119/154 100/124/157 99/121/156 106/118/155
s 3
f 106/118/160 99/121/161 89/126/21 92/125/20
s 17
f 108/127/162 105/119/163 10/120/164 21/128/165
s 20
f 98/115/166 102/123/167 100/124/168 107/129/169
f 108/127/170 104/109/171 94/112/172 107/129/169
f 96/113/173 98/115/166 107/129/169 94/112/172
s 17
f 104/109/144 108/127/162 21/128/165 2/108/145
s 20
f 100/124/168 105/119/174 108/127/170 107/129/169
s 21
f 109/130/175 123/133/176 124/132/177 110/131/178
s 6
f 28/134/40 109/130/179 110/131/180 29/135/41
s 7
f 28/134/44 52/136/47 123/133/181 109/130/182
s 21
f 111/137/183 113/140/184 114/139/185 112/138/186
s 8
f 112/138/187 114/139/188 32/142/54 27/141/53
s 7
f 26/143/56 33/144/59 113/140/189 111/137/190
s 21
f 113/140/184 115/146/191 116/145/192 114/139/185
s 8
f 114/139/188 116/145/193 36/147/62 32/142/54
s 7
f 33/144/59 37/148/65 115/146/194 113/140/189
s 21
f 117/149/195 118/152/196 125/151/197 126/150/198
s 10
f 44/153/70 45/154/73 118/152/199 117/149/200
s 7
f 44/153/74 117/149/201 126/150/202 57/155/75
s 21
f 119/156/203 120/159/204 122/158/205 121/157/206
s 8
f 120/159/207 43/161/85 48/160/84 122/158/208
s 7
f 42/162/86 119/156/209 121/157/210 49/163/87
s 21
f 121/157/206 122/158/205 116/145/192 115/146/191
s 8
f 122/158/208 48/160/84 36/147/62 116/145/193
s 7
f 49/163/87 121/157/210 115/146/194 37/148/65
s 21
f 123/133/176 111/137/183 112/138/186 124/132/177
s 8
f 124/132/211 112/138/187 27/141/53 53/164/91
s 7
f 52/136/47 26/143/56 111/137/190 123/133/181
s 21
f 125/151/197 120/159/204 119/156/203 126/150/198
s 8
f 56/165/92 43/161/85 120/159/207 125/151/212
s 7
f 126/150/202 119/156/209 42/162/86 57/155/75
s 6
f 110/131/180 118/152/213 45/154/94 29/135/41
s 13
f 53/164/96 56/165/99 125/151/214 124/132/215
s 21
f 124/132/177 125/151/216 118/152/217 110/131/178
s 24
f 127/166/218 133/169/219 134/168/220 128/167/221
f 128/167/221 134/168/220 135/171/222 129/170/223
f 129/170/223 135/171/222 136/173/224 130/172/225
f 130/172/225 136/173/224 137/175/226 131/174/227
f 131/174/227 137/175/226 138/177/228 132/176/229
f 132/176/229 138/177/228 133/179/219 127/178/218
f 133/169/219 139/181/230 140/180/231 134/168/220
f 134/168/220 140/180/231 141/182/232 135/171/222
f 135/171/222 141/182/232 142/183/233 136/173/224
f 136/173/224 142/183/233 143/184/234 137/175/226
f 137/175/226 143/184/234 144/185/235 138/177/228
f 138/177/228 144/185/235 139/186/230 133/179/219
f 139/181/230 145/188/236 146/187/237 140/180/231
f 140/180/231 146/187/237 147/189/238 141/182/232
f 141/182/232 147/189/238 148/190/239 142/183/233
f 142/183/233 148/190/239 149/191/240 143/184/234
f 143/184/234 149/191/240 150/192/241 144/185/235
f 144/185/235 150/192/241 145/193/236 139/186/230
f 128/167/221 151/194/242 127/166/218
f 129/170/223 151/195/242 128/167/221
f 130/172/225 151/196/242 129/170/223
f 131/174/227 151/197/242 130/172/225
f 132/176/229 151/198/242 131/174/227
f 127/178/218 151/199/242 132/176/229
f 145/188/236 152/200/243 146/187/237
f 146/187/237 152/201/243 147/189/238
f 147/189/238 152/202/243 148/190/239
f 148/190/239 152/203/243 149/191/240
f 149/191/240 152/204/243 150/192/241
f 150/192/241 152/205/243 145/193/236
s 3
f 91/206/128 103/110/244 1/107/130 85/207/129
f 86/208/132 95/114/245 93/111/246 84/209/133
f 87/210/136 97/116/247 95/114/245 86/208/132
f 88/211/138 9/117/139 106/118/160 92/125/20
f 89/126/21 99/121/161 101/122/248 90/212/140
f 90/212/140 101/122/248 97/116/247 87/210/136
f 84/209/133 93/111/246 103/110/244 91/206/128
