# Blender v2.83.4 OBJ File: ''
# www.blender.org
mtllib Sphere.mtl
o Sphere
v -0.107960 0.982276 -0.172517
v -0.054208 0.649994 -0.768488
v 0.098295 0.098969 -0.998027
v 0.096849 -0.180741 -0.983340
v 0.087872 -0.461874 -0.892157
v 0.210324 -0.706054 -0.680304
v -0.011342 -0.889079 -0.474686
v -0.101483 -0.983237 -0.176704
v 0.110400 0.829481 -0.555024
v 0.230140 0.638967 -0.744335
v 0.259857 0.391797 -0.886114
v 0.474291 0.000000 -0.887336
v 0.434324 0.637827 -0.643466
v 0.449913 0.294196 -0.850912
v 0.454393 -0.292875 -0.850110
v 0.393574 -0.558082 -0.736325
v 0.448820 -0.708742 -0.546889
v 0.215369 0.926968 -0.326631
v 0.623740 0.196749 -0.760029
v 0.604885 0.638968 -0.491033
v 0.755734 0.309155 -0.591811
v 0.766101 -0.082155 -0.649784
v 0.683308 -0.468326 -0.573807
v 0.347961 -0.834889 -0.442263
v 0.423958 0.840774 -0.355454
v 0.868253 -0.197140 -0.465214
v 0.845779 -0.481431 -0.266522
v 0.269638 -0.926351 -0.282765
v 0.882076 0.385203 -0.284560
v 0.962005 0.107599 -0.283089
v 0.582892 -0.777587 -0.269687
v 0.157315 -0.981621 -0.129105
v 0.692733 0.712804 -0.155800
v 0.823623 0.564093 -0.142630
v 0.997131 -0.099452 -0.096756
v 0.885356 -0.475433 0.084310
v 0.171825 0.984597 -0.107279
v 0.457054 0.897015 -0.047259
v 0.960782 0.293134 0.096353
v 0.976738 -0.204561 0.105851
v 0.704242 -0.717473 0.007740
v 0.382814 -0.927608 0.064325
v 0.490639 0.840774 0.255660
v 0.793221 0.557974 0.255895
v 0.963383 0.008210 0.281462
v 0.542794 -0.836769 0.116519
v 0.663315 0.708572 0.268766
v 0.850774 0.293134 0.456694
v 0.882839 -0.099452 0.473526
v 0.819276 -0.391921 0.429269
v 0.685979 -0.638319 0.366664
v 0.121586 -0.986421 0.158002
v 0.447006 0.709304 0.549410
v 0.654910 0.497100 0.580100
v 0.750115 -0.196721 0.637944
v 0.644627 0.071222 0.771333
v 0.597311 -0.378983 0.711338
v 0.520163 -0.649995 0.566003
v 0.000000 -1.000000 0.000000
v 0.429476 0.468325 0.782123
v 0.448886 0.196721 0.876440
v 0.454635 -0.204561 0.870935
v 0.383064 -0.497100 0.786566
v 0.217550 -0.708715 0.674359
v 0.346466 -0.840774 0.431335
v 0.107960 0.982276 0.172518
v 0.254233 0.931025 0.290998
v 0.198657 0.711736 0.677653
v 0.291662 -0.000000 0.961481
v 0.097535 -0.197140 0.980191
v 0.192247 -0.925603 0.336508
v 0.177152 0.838086 0.529777
v 0.096398 0.481430 0.881524
v 0.079318 0.196721 0.981506
v 0.090034 -0.475433 0.884793
v 0.010246 -0.831849 0.561229
v -0.111155 0.924887 0.374306
v -0.074810 0.711675 0.701083
v -0.088107 0.008211 0.999783
v -0.255895 0.557974 0.793221
v -0.244441 0.318416 0.923172
v -0.236380 -0.308531 0.929701
v -0.255895 -0.557974 0.793221
v -0.121157 -0.712804 0.699624
v -0.331233 0.709304 0.626059
v -0.471574 0.204561 0.861881
v -0.474291 -0.000000 0.887336
v -0.471574 -0.204561 0.861881
v -0.490455 -0.473966 0.737781
v -0.000000 1.000000 0.000001
v -0.249343 0.838086 0.499874
v -0.561979 0.475432 0.689307
v -0.359048 -0.789658 0.514066
v -0.148680 -0.928309 0.358945
v -0.545602 0.709304 0.451646
v -0.735458 0.473966 0.493932
v -0.767425 0.189027 0.621112
v -0.780443 -0.107597 0.629684
v -0.683308 -0.468324 0.573808
v -0.698170 -0.638423 0.342898
v -0.486472 -0.832199 0.271099
v -0.373886 -0.925603 0.102008
v -0.510529 0.834055 0.226505
v -0.750535 0.638667 0.209638
v -0.882076 0.385202 0.284560
v -0.962005 0.107598 0.283090
v -0.946698 -0.189027 0.280152
v -0.882076 -0.385202 0.284560
v -0.358838 0.929162 0.139609
v -0.883051 0.480538 0.010555
v -0.999900 0.098554 0.000343
v -0.873284 -0.497099 0.052899
v -0.692220 -0.717473 0.129800
v -0.179074 -0.983075 0.095717
v -0.171825 0.984597 0.107280
v -0.703843 0.708715 -0.081809
v -0.990217 -0.126587 -0.131853
v -0.558347 -0.834055 0.013893
v -0.851896 0.475431 -0.255415
v -0.937146 0.196721 -0.302326
v -0.889961 0.008210 -0.464000
v -0.891512 -0.385202 -0.253452
v -0.740516 -0.638667 -0.242667
v -0.540521 0.835869 -0.159467
v -0.867513 -0.189027 -0.471319
v -0.693965 -0.491475 -0.542277
v -0.524033 -0.784959 -0.357588
v -0.589270 0.712212 -0.393738
v -0.689307 0.475431 -0.561979
v -0.746030 0.115626 -0.667863
v -0.318094 0.928498 -0.216398
v -0.616475 -0.300874 -0.738858
v -0.313886 -0.834685 -0.461155
v -0.083034 0.923878 -0.378091
v -0.386347 0.656279 -0.656919
v -0.490251 0.308532 -0.824542
v -0.464000 -0.008211 -0.889961
v -0.374470 -0.660982 -0.660205
v -0.298937 -0.929969 -0.245331
v -0.258618 0.844351 -0.483837
v -0.233882 0.562791 -0.795973
v -0.097068 0.378932 -0.925380
v -0.275990 0.204561 -0.942894
v -0.259574 -0.112815 -0.969007
v -0.260919 -0.475432 -0.850226
v -0.072410 -0.709304 -0.704571
vt 0.839211 0.937500
vt 0.734375 1.000000
vt 0.589220 0.937500
vt 0.718600 0.812500
vt 0.702544 0.718280
vt 0.759893 0.725021
vt 0.734375 0.348939
vt 0.702271 0.250000
vt 0.766302 0.250000
vt 0.643959 0.187500
vt 0.752066 0.155949
vt 0.704602 0.625000
vt 0.671930 0.593640
vt 0.734375 0.533997
vt 0.703125 0.000000
vt 0.833439 0.062500
vt 0.609943 0.062500
vt 0.657293 0.875000
vt 0.610999 0.812500
vt 0.671875 0.312500
vt 0.640625 0.250000
vt 0.671875 0.500000
vt 0.640625 0.562500
vt 0.613838 0.477896
vt 0.671875 0.409378
vt 0.609239 0.716797
vt 0.656250 0.718927
vt 0.610005 0.346011
vt 0.564441 0.221968
vt 0.603884 0.599537
vt 0.549679 0.625000
vt 0.546180 0.532847
vt 0.516713 0.849926
vt 0.578286 0.437500
vt 0.547535 0.343092
vt 0.535174 0.750000
vt 0.527269 0.687500
vt 0.498258 0.250000
vt 0.473402 0.125000
vt 0.628651 0.125000
vt 0.515610 0.468779
vt 0.354205 0.062500
vt 0.515625 0.000000
vt 0.466393 0.187500
vt 0.484345 0.593425
vt 0.454769 0.500000
vt 0.453124 1.000000
vt 0.338638 0.937500
vt 0.421860 0.468779
vt 0.482814 0.437500
vt 0.484414 0.344178
vt 0.423190 0.375000
vt 0.422131 0.281898
vt 0.450323 0.687500
vt 0.421845 0.593425
vt 0.438848 0.750000
vt 0.383271 0.665313
vt 0.357638 0.187500
vt 0.362214 0.520418
vt 0.387818 0.437500
vt 0.361180 0.375000
vt 0.423499 0.812500
vt 0.358698 0.750000
vt 0.332678 0.125000
vt 0.328755 0.653989
vt 0.326564 0.437500
vt 0.364045 0.875000
vt 0.301311 0.812500
vt 0.367662 0.276737
vt 0.320771 0.334687
vt 0.295385 0.750000
vt 0.299676 0.250000
vt 0.325318 0.562500
vt 0.296875 0.500000
vt 0.252840 0.187500
vt 0.265786 0.437500
vt 0.266285 0.656908
vt 0.204076 0.875000
vt 0.233083 0.750000
vt 0.265664 0.344178
vt 0.222730 0.250000
vt 0.187361 0.125000
vt 0.262818 0.562500
vt 0.236019 0.500000
vt 0.234375 1.000000
vt 0.092591 0.937500
vt 0.211155 0.400476
vt 0.176311 0.812500
vt 0.200323 0.312500
vt 0.200323 0.687500
vt 0.172552 0.750000
vt 0.152656 0.213524
vt 0.081405 0.062500
vt 0.203125 0.000000
vt 0.170314 0.437500
vt 0.156250 0.343629
vt 0.140665 0.655822
vt 0.210345 0.603472
vt 0.110052 0.750000
vt 0.170314 0.562500
vt 0.108282 0.562500
vt 0.171875 0.500000
vt 0.108670 0.467486
vt 0.059153 0.875000
vt 0.066534 0.812500
vt 0.110005 0.346012
vt 0.076336 0.284828
vt 0.093750 0.656371
vt 0.049680 0.375000
vt 0.045523 0.719815
vt 0.046180 0.532847
vt 0.008271 0.334687
vt 0.029508 0.250000
vt 0.012557 0.187500
vt 0.080927 0.187500
vt 0.000000 0.658651
vt 0.049680 0.625000
vt 0.000000 0.812500
vt 1.000000 0.875000
vt 0.984375 0.937500
vt 0.904889 0.875000
vt 0.977641 0.460487
vt 0.955929 0.375000
vt 1.000000 0.334687
vt 0.952020 0.282012
vt 1.000000 0.250000
vt 1.000000 0.658651
vt 0.981574 0.750000
vt 0.953164 0.655822
vt 1.000000 0.125000
vt 0.985537 0.187500
vt 0.890670 0.125000
vt 0.908360 0.218118
vt 0.986986 0.062500
vt 0.950318 0.562500
vt 0.923519 0.500000
vt 0.953125 1.000000
vt 0.953125 0.000000
vt 0.954367 0.812500
vt 0.906295 0.750000
vt 0.920782 0.437500
vt 0.895113 0.337227
vt 0.890665 0.655822
vt 0.860089 0.404927
vt 0.828251 0.812500
vt 0.834433 0.271304
vt 0.835654 0.726961
vt 0.883031 0.535689
vt 0.836155 0.599525
vt 0.826481 0.500000
vt 0.790511 0.463332
vt 0.784331 0.875000
vt 0.796915 0.344178
vt 0.795485 0.687500
vt 0.766643 0.625000
vt 0.845048 0.187500
vt 0.795314 0.562500
vt 0.734375 0.437500
vt 0.042350 0.125000
vt 0.045782 0.437500
vt 0.000000 0.531273
vt 0.000000 0.750000
vt 0.000000 0.437500
vt 1.000000 0.531273
vn 0.0182 0.9934 -0.1135
vn 0.0860 0.7289 -0.6792
vn 0.0735 -0.6323 -0.7712
vn 0.1729 -0.8209 -0.5443
vn 0.2789 0.2047 -0.9382
vn 0.0263 -0.9937 -0.1094
vn 0.2769 0.8312 -0.4821
vn 0.3522 -0.6797 -0.6433
vn 0.6343 0.0183 -0.7729
vn 0.6009 -0.1408 -0.7868
vn 0.4461 0.7391 -0.5047
vn 0.6110 -0.6470 -0.4562
vn 0.8725 0.2490 -0.4204
vn 0.8558 0.0979 -0.5079
vn 0.3231 0.9291 -0.1799
vn 0.8126 -0.3757 -0.4456
vn 0.5897 0.7424 -0.3180
vn 0.7242 0.6088 -0.3239
vn 0.7365 -0.6518 -0.1809
vn 0.4294 -0.8917 -0.1433
vn 0.9469 -0.1110 -0.3018
vn 0.2236 -0.9746 0.0115
vn 0.1141 -0.9935 -0.0024
vn 0.5630 -0.8237 -0.0678
vn 0.9202 0.3789 -0.0986
vn 0.9958 0.0564 0.0728
vn 0.1099 0.9934 0.0333
vn 0.9390 -0.1819 0.2918
vn 0.8130 -0.5108 0.2794
vn 0.7605 -0.6249 0.1765
vn 0.8789 0.3944 0.2683
vn 0.7077 0.5754 0.4100
vn 0.5294 -0.7856 0.3202
vn 0.8989 0.0918 0.4284
vn 0.8024 0.0908 0.5898
vn 0.7219 -0.3696 0.5850
vn 0.5346 0.7389 0.4101
vn 0.3452 -0.9051 0.2483
vn 0.7021 0.2775 0.6557
vn 0.5000 0.5825 0.6409
vn 0.6151 -0.1438 0.7752
vn 0.3770 0.8155 0.4391
vn 0.5222 -0.5137 0.6807
vn 0.4760 -0.3492 0.8072
vn 0.3122 0.7442 0.5905
vn 0.3657 -0.6429 0.6730
vn 0.4740 0.0018 0.8805
vn 0.1886 -0.8175 0.5442
vn 0.2836 -0.1901 0.9399
vn 0.2546 0.5751 0.7774
vn 0.0601 0.9411 0.3329
vn 0.0550 0.7631 0.6440
vn 0.0644 -0.6488 0.7582
vn 0.0341 -0.9122 0.4082
vn 0.1005 0.0072 0.9949
vn -0.0182 0.9934 0.1135
vn -0.0899 -0.1748 0.9805
vn -0.0352 -0.3232 0.9457
vn -0.0378 0.8410 0.5397
vn -0.1196 -0.4693 0.8749
vn -0.0778 0.5785 0.8120
vn -0.1932 0.7466 0.6366
vn -0.1638 -0.8194 0.5493
vn -0.0542 -0.9763 0.2094
vn -0.0342 -0.9932 0.1117
vn -0.4018 -0.3597 0.8421
vn -0.3977 0.5838 0.7078
vn -0.3916 0.4242 0.8165
vn -0.4118 0.7578 0.5061
vn -0.6168 0.2661 0.7408
vn -0.6184 -0.1051 0.7788
vn -0.2323 0.9366 0.2622
vn -0.3586 0.8733 0.3298
vn -0.5525 -0.6537 0.5171
vn -0.6078 0.5865 0.5353
vn -0.7827 -0.4760 0.4010
vn -0.6137 0.7273 0.3074
vn -0.8709 0.0523 0.4887
vn -0.8120 -0.5371 0.2286
vn -0.5637 -0.8097 0.1634
vn -0.8518 0.4938 0.1748
vn -0.5125 0.8575 0.0439
vn -0.2896 0.9565 -0.0349
vn -0.9420 -0.3293 -0.0642
vn -0.8485 -0.5113 -0.1363
vn -0.7658 -0.6420 -0.0365
vn -0.8023 0.5875 -0.1053
vn -0.4132 -0.9073 -0.0777
vn -0.6093 -0.7768 -0.1590
vn -0.2380 -0.9689 -0.0672
vn -0.9580 0.0061 -0.2867
vn -0.1099 0.9934 -0.0333
vn -0.1104 -0.9934 -0.0308
vn -0.6644 0.7092 -0.2361
vn -0.8241 -0.3728 -0.4265
vn -0.7216 0.5768 -0.3827
vn -0.7552 -0.2961 -0.5848
vn -0.4355 0.8264 -0.3569
vn -0.5209 -0.5010 -0.6911
vn -0.4354 0.7516 -0.4954
vn -0.5416 -0.6495 -0.5337
vn -0.5819 0.1180 -0.8047
vn -0.4463 -0.2159 -0.8685
vn -0.1803 0.9402 -0.2889
vn -0.2036 0.7343 -0.6476
vn -0.2107 -0.6335 -0.7445
vn -0.2939 0.3942 -0.8708
vn -0.1799 -0.9044 -0.3868
vn -0.3331 0.0602 -0.9410
vn -0.0902 0.1907 -0.9775
vn -0.0673 0.8479 -0.5259
vn 0.0929 0.3103 -0.9461
vn 0.0841 0.4960 -0.8643
vn 0.0623 0.9073 -0.4159
vn 0.0626 -0.7780 -0.6251
vn 0.0644 -0.9557 -0.2873
vn 0.1724 -0.8887 -0.4249
vn 0.2888 -0.0971 -0.9525
vn 0.3138 0.1422 -0.9388
vn 0.3065 0.7738 -0.5543
vn 0.2466 -0.3061 -0.9195
vn 0.2974 -0.4332 -0.8508
vn 0.2217 -0.5732 -0.7888
vn 0.3915 0.4903 -0.7787
vn 0.3202 -0.7432 -0.5874
vn 0.5737 0.4539 -0.6818
vn 0.5219 0.1473 -0.8402
vn 0.7629 0.5059 -0.4025
vn 0.5869 0.3804 -0.7147
vn 0.6453 -0.2783 -0.7114
vn 0.5393 -0.4334 -0.7220
vn 0.5273 -0.5834 -0.6178
vn 0.7562 -0.2786 -0.5921
vn 0.4984 -0.7537 -0.4283
vn 0.7416 0.1175 -0.6604
vn 0.4207 -0.8606 -0.2869
vn 0.8787 0.0148 -0.4771
vn 0.3496 0.9143 -0.2044
vn 0.6904 -0.6087 -0.3910
vn 0.9418 -0.3236 -0.0906
vn 0.5416 0.8148 -0.2068
vn 0.3174 -0.9422 -0.1069
vn 0.9319 -0.2544 -0.2585
vn 0.9529 0.2737 -0.1307
vn 0.9914 0.1188 -0.0549
vn 0.6203 0.7820 0.0614
vn 0.8102 -0.5805 -0.0815
vn 0.5114 -0.8558 -0.0780
vn 0.7524 0.6557 0.0629
vn 0.2787 0.9577 0.0712
vn 0.8622 0.5012 0.0735
vn 0.9956 -0.0142 0.0929
vn 0.9381 0.1946 0.2864
vn 0.9164 -0.2849 0.2811
vn 0.6763 -0.4945 0.5460
vn 0.3705 0.9197 0.1297
vn 0.6639 -0.7224 0.1931
vn 0.7682 0.4844 0.4187
vn 0.4158 -0.8749 0.2482
vn 0.8206 -0.2557 0.5111
vn 0.7795 -0.0049 0.6264
vn 0.6057 0.3082 0.7336
vn 0.5998 0.6543 0.4606
vn 0.5251 -0.7551 0.3925
vn 0.2847 -0.9362 0.2062
vn 0.2703 0.3185 0.9086
vn 0.6097 -0.2025 0.7664
vn 0.3645 0.8286 0.4250
vn 0.4758 -0.0102 0.8795
vn 0.3595 0.6346 0.6842
vn 0.3511 -0.7319 0.5840
vn 0.1674 -0.8543 0.4920
vn 0.2746 -0.3232 0.9056
vn 0.2683 0.1935 0.9437
vn -0.2899 0.1022 0.9516
vn 0.2185 -0.5850 0.7810
vn 0.0716 0.9215 0.3818
vn 0.0651 0.6451 0.7614
vn 0.0597 -0.7280 0.6829
vn 0.0281 -0.9495 0.3124
vn 0.1003 -0.0043 0.9950
vn -0.1174 0.4692 0.8753
vn -0.0444 0.3334 0.9417
vn -0.1052 0.1881 0.9765
vn -0.0450 0.9727 0.2277
vn -0.0390 0.8305 0.5556
vn -0.0818 -0.5668 0.8198
vn -0.2130 0.6746 0.7067
vn -0.1625 -0.8349 0.5258
vn -0.2906 -0.0934 0.9523
vn -0.3523 -0.6520 0.6714
vn -0.4157 0.3860 0.8236
vn -0.3503 -0.4283 0.8330
vn -0.6448 0.0719 0.7610
vn -0.2828 0.9060 0.3150
vn -0.5147 -0.6279 0.5838
vn -0.4850 0.6398 0.5962
vn -0.6293 -0.2847 0.7232
vn -0.3333 -0.8917 0.3062
vn -0.7004 0.3550 0.6192
vn -0.2689 -0.9363 0.2259
vn -0.4198 0.8200 0.3890
vn -0.5361 -0.7377 0.4103
vn -0.8526 0.2696 0.4476
vn -0.6792 0.6189 0.3945
vn -0.6013 -0.7544 0.2631
vn -0.7910 0.5103 0.3376
vn -0.8324 -0.2857 0.4749
vn -0.8973 -0.0506 0.4386
vn -0.9530 0.2823 0.1103
vn -0.7901 -0.5816 0.1937
vn -0.4944 -0.8572 0.1443
vn -0.7813 0.6236 0.0247
vn -0.9910 -0.0760 0.1103
vn -0.9566 -0.2820 0.0733
vn -0.6168 0.7841 0.0680
vn -0.9481 0.2993 -0.1076
vn -0.3942 0.9178 -0.0468
vn -0.6864 -0.7244 -0.0643
vn -0.8296 0.2975 -0.4725
vn -0.2841 -0.9575 -0.0493
vn -0.9811 0.0649 -0.1824
vn -0.7182 0.6468 -0.2566
vn -0.4777 -0.8641 -0.1583
vn -0.9416 -0.0952 -0.3229
vn -0.2353 0.9700 -0.0618
vn -0.9303 -0.2156 -0.2966
vn -0.7936 -0.4882 -0.3631
vn -0.6502 -0.6370 -0.4140
vn -0.7626 -0.1075 -0.6379
vn -0.8473 0.2073 -0.4890
vn -0.3764 -0.8569 -0.3522
vn -0.1898 -0.7834 -0.5918
vn -0.4283 0.8329 -0.3505
vn -0.5476 0.6259 -0.5553
vn -0.4296 -0.7411 -0.5159
vn -0.5140 0.4922 -0.7025
vn -0.6545 0.3066 -0.6911
vn -0.6352 -0.0664 -0.7695
vn -0.4022 0.4923 -0.7719
vn -0.4214 0.1498 -0.8944
vn -0.4103 -0.2825 -0.8671
vn -0.2131 0.9174 -0.3361
vn -0.4672 -0.4766 -0.7446
vn -0.2223 0.6787 -0.7000
vn -0.0992 -0.3071 -0.9465
vn 0.0428 0.9655 -0.2567
vn -0.2936 0.3890 -0.8732
vn -0.1349 -0.9324 -0.3354
vn -0.1246 0.0750 -0.9894
vn -0.0500 -0.0521 -0.9974
vn -0.0842 0.7937 -0.6024
vn -0.0761 -0.5706 -0.8177
vn -0.1180 0.5114 -0.8512
usemtl None
s off
f 1/1/1 90/2/1 37/3/1
f 9/4/2 10/5/2 2/6/2
f 5/7/3 6/8/3 146/9/3
f 6/8/4 24/10/4 7/11/4
f 11/12/5 14/13/5 3/14/5
f 59/15/6 8/16/6 32/17/6
f 18/18/7 25/19/7 9/4/7
f 6/8/8 16/20/8 17/21/8
f 12/22/9 19/23/9 22/24/9
f 12/22/10 22/24/10 15/25/10
f 25/19/11 20/26/11 13/27/11
f 23/28/12 31/29/12 17/21/12
f 21/30/13 29/31/13 30/32/13
f 21/30/14 30/32/14 22/24/14
f 37/3/15 38/33/15 18/18/15
f 26/34/16 27/35/16 23/28/16
f 25/19/17 33/36/17 20/26/17
f 20/26/18 33/36/18 34/37/18
f 31/29/19 27/35/19 41/38/19
f 31/29/20 42/39/20 28/40/20
f 30/32/21 35/41/21 26/34/21
f 32/17/22 42/39/22 52/42/22
f 59/43/23 32/17/23 52/42/23
f 31/29/24 41/38/24 46/44/24
f 34/37/25 39/45/25 29/31/25
f 39/45/26 45/46/26 35/41/26
f 37/3/27 90/47/27 66/48/27
f 45/46/28 49/49/28 40/50/28
f 36/51/29 50/52/29 51/53/29
f 36/51/30 51/53/30 41/38/30
f 44/54/31 48/55/31 39/45/31
f 44/54/32 47/56/32 54/57/32
f 46/44/33 51/53/33 65/58/33
f 48/55/34 49/49/34 45/46/34
f 48/55/35 56/59/35 49/49/35
f 55/60/36 57/61/36 50/52/36
f 43/62/37 53/63/37 47/56/37
f 65/58/38 71/64/38 42/39/38
f 48/55/39 54/57/39 56/59/39
f 54/57/40 53/63/40 60/65/40
f 55/60/41 56/59/41 62/66/41
f 67/67/42 72/68/42 43/62/42
f 58/69/43 57/61/43 63/70/43
f 62/66/44 63/70/44 57/61/44
f 72/68/45 68/71/45 53/63/45
f 63/70/46 64/72/46 58/69/46
f 61/73/47 69/74/47 56/59/47
f 64/72/48 76/75/48 65/58/48
f 69/74/49 70/76/49 62/66/49
f 68/71/50 73/77/50 60/65/50
f 66/48/51 77/78/51 67/67/51
f 68/71/52 72/68/52 78/79/52
f 75/80/53 84/81/53 64/72/53
f 76/75/54 94/82/54 71/64/54
f 74/83/55 79/84/55 69/74/55
f 66/48/56 90/85/56 115/86/56
f 79/84/57 82/87/57 70/76/57
f 70/76/58 82/87/58 75/80/58
f 77/78/59 91/88/59 72/68/59
f 75/80/60 82/87/60 83/89/60
f 73/77/61 78/79/61 80/90/61
f 78/79/62 91/88/62 85/91/62
f 84/81/63 93/92/63 76/75/63
f 52/42/64 94/82/64 114/93/64
f 59/94/65 52/42/65 114/93/65
f 88/95/66 89/96/66 82/87/66
f 80/90/67 85/91/67 92/97/67
f 80/90/68 92/97/68 81/98/68
f 85/91/69 91/88/69 95/99/69
f 86/100/70 92/97/70 97/101/70
f 87/102/71 98/103/71 88/95/71
f 115/86/72 109/104/72 77/78/72
f 109/104/73 103/105/73 91/88/73
f 99/106/74 100/107/74 93/92/74
f 92/97/75 95/99/75 96/108/75
f 99/106/76 108/109/76 100/107/76
f 95/99/77 103/105/77 104/110/77
f 97/101/78 106/111/78 98/103/78
f 100/107/79 108/109/79 112/112/79
f 113/113/80 118/114/80 101/115/80
f 104/110/81 110/116/81 105/117/81
f 109/104/82 124/118/82 103/105/82
f 109/119/83 115/120/83 131/121/83
f 117/122/84 122/123/84 112/124/84
f 112/124/85 122/123/85 123/125/85
f 112/124/86 123/125/86 113/126/86
f 110/127/87 116/128/87 119/129/87
f 102/130/88 118/131/88 139/132/88
f 123/125/89 127/133/89 118/131/89
f 139/132/90 8/16/90 114/134/90
f 120/135/91 121/136/91 117/122/91
f 115/120/92 90/137/92 1/1/92
f 59/138/93 114/134/93 8/16/93
f 116/128/94 124/139/94 128/140/94
f 125/141/95 126/142/95 122/123/95
f 119/129/96 128/140/96 129/143/96
f 125/141/97 132/144/97 126/142/97
f 131/121/98 140/145/98 124/139/98
f 126/142/99 132/144/99 138/146/99
f 140/145/100 135/147/100 128/140/100
f 126/142/101 138/146/101 127/133/101
f 130/148/102 136/149/102 137/150/102
f 137/150/103 144/151/103 132/144/103
f 131/121/104 1/1/104 134/152/104
f 140/145/105 2/6/105 135/147/105
f 145/153/106 146/9/106 138/146/106
f 141/154/107 142/155/107 136/149/107
f 133/156/108 7/11/108 139/132/108
f 143/157/109 144/151/109 137/150/109
f 143/157/110 142/155/110 3/14/110
f 140/145/111 134/152/111 9/4/111
f 142/155/112 11/12/112 3/14/112
f 11/12/113 142/155/113 2/6/113 10/5/113
f 9/4/114 134/152/114 18/18/114
f 146/9/115 6/8/115 7/11/115
f 32/17/116 8/16/116 7/11/116 28/40/116
f 7/11/117 24/10/117 28/40/117
f 12/22/118 15/25/118 4/158/118 3/14/118
f 3/14/119 14/13/119 12/22/119
f 13/27/120 10/5/120 9/4/120 25/19/120
f 5/7/121 4/158/121 15/25/121
f 5/7/122 15/25/122 16/20/122
f 6/8/123 5/7/123 16/20/123
f 14/13/124 11/12/124 10/5/124 13/27/124
f 6/8/125 17/21/125 24/10/125
f 21/30/126 14/13/126 13/27/126 20/26/126
f 14/13/127 19/23/127 12/22/127
f 29/31/128 21/30/128 20/26/128 34/37/128
f 14/13/129 21/30/129 19/23/129
f 15/25/130 22/24/130 23/28/130
f 16/20/131 15/25/131 23/28/131
f 16/20/132 23/28/132 17/21/132
f 22/24/133 26/34/133 23/28/133
f 24/10/134 17/21/134 31/29/134
f 22/24/135 19/23/135 21/30/135
f 28/40/136 24/10/136 31/29/136
f 22/24/137 30/32/137 26/34/137
f 18/18/138 38/33/138 25/19/138
f 31/29/139 23/28/139 27/35/139
f 36/51/140 27/35/140 35/41/140 40/50/140
f 33/36/141 25/19/141 38/33/141
f 32/17/142 28/40/142 42/39/142
f 26/34/143 35/41/143 27/35/143
f 30/32/144 29/31/144 39/45/144
f 30/32/145 39/45/145 35/41/145
f 47/56/146 33/36/146 38/33/146 43/62/146
f 27/35/147 36/51/147 41/38/147
f 42/39/148 31/29/148 46/44/148
f 47/56/149 44/54/149 34/37/149 33/36/149
f 67/67/150 38/33/150 37/3/150 66/48/150
f 34/37/151 44/54/151 39/45/151
f 35/41/152 45/46/152 40/50/152
f 39/45/153 48/55/153 45/46/153
f 50/52/154 36/51/154 40/50/154 49/49/154
f 58/69/155 51/53/155 50/52/155 57/61/155
f 43/62/156 38/33/156 67/67/156
f 41/38/157 51/53/157 46/44/157
f 44/54/158 54/57/158 48/55/158
f 46/44/159 65/58/159 42/39/159
f 49/49/160 55/60/160 50/52/160
f 49/49/161 56/59/161 55/60/161
f 60/65/162 61/73/162 56/59/162 54/57/162
f 47/56/163 53/63/163 54/57/163
f 65/58/164 51/53/164 58/69/164
f 52/42/165 42/39/165 71/64/165
f 73/77/166 74/83/166 61/73/166 60/65/166
f 55/60/167 62/66/167 57/61/167
f 53/63/168 43/62/168 72/68/168
f 56/59/169 69/74/169 62/66/169
f 53/63/170 68/71/170 60/65/170
f 65/58/171 58/69/171 64/72/171
f 65/58/172 76/75/172 71/64/172
f 75/80/173 63/70/173 62/66/173 70/76/173
f 61/73/174 74/83/174 69/74/174
f 87/102/175 79/84/175 81/98/175 86/100/175
f 63/70/176 75/80/176 64/72/176
f 72/68/177 67/67/177 77/78/177
f 68/71/178 78/79/178 73/77/178
f 76/75/179 64/72/179 84/81/179
f 52/42/180 71/64/180 94/82/180
f 69/74/181 79/84/181 70/76/181
f 73/77/182 80/90/182 81/98/182
f 74/83/183 73/77/183 81/98/183
f 74/83/184 81/98/184 79/84/184
f 66/48/185 115/86/185 77/78/185
f 78/79/186 72/68/186 91/88/186
f 75/80/187 83/89/187 84/81/187
f 80/90/188 78/79/188 85/91/188
f 94/82/189 76/75/189 93/92/189
f 87/102/190 88/95/190 82/87/190 79/84/190
f 93/92/191 84/81/191 83/89/191 89/96/191
f 86/100/192 81/98/192 92/97/192
f 83/89/193 82/87/193 89/96/193
f 97/101/194 98/103/194 87/102/194 86/100/194
f 77/78/195 109/104/195 91/88/195
f 89/96/196 99/106/196 93/92/196
f 92/97/197 85/91/197 95/99/197
f 99/106/198 89/96/198 88/95/198 98/103/198
f 101/115/199 102/159/199 94/82/199 93/92/199
f 97/101/200 92/97/200 96/108/200
f 94/82/201 102/159/201 114/93/201
f 95/99/202 91/88/202 103/105/202
f 93/92/203 100/107/203 101/115/203
f 105/117/204 106/111/204 97/101/204 96/108/204
f 96/108/205 95/99/205 104/110/205
f 100/107/206 113/113/206 101/115/206
f 96/108/207 104/110/207 105/117/207
f 108/109/208 99/106/208 98/103/208 107/160/208
f 98/103/209 106/111/209 107/160/209
f 110/116/210 111/161/210 106/111/210 105/117/210
f 100/107/211 112/112/211 113/113/211
f 102/159/212 101/115/212 118/114/212
f 104/110/213 116/162/213 110/116/213
f 111/161/214 117/163/214 107/160/214 106/111/214
f 112/112/215 108/109/215 107/160/215 117/163/215
f 124/118/216 116/162/216 104/110/216 103/105/216
f 119/129/217 120/135/217 111/164/217 110/127/217
f 109/119/218 131/121/218 124/139/218
f 113/126/219 123/125/219 118/131/219
f 129/143/220 130/148/220 120/135/220 119/129/220
f 102/130/221 139/132/221 114/134/221
f 111/164/222 120/135/222 117/122/222
f 116/128/223 128/140/223 119/129/223
f 139/132/224 118/131/224 127/133/224
f 117/122/225 121/136/225 125/141/225
f 115/120/226 1/1/226 131/121/226
f 117/122/227 125/141/227 122/123/227
f 123/125/228 122/123/228 126/142/228
f 123/125/229 126/142/229 127/133/229
f 130/148/230 132/144/230 125/141/230 121/136/230
f 120/135/231 130/148/231 121/136/231
f 127/133/232 133/156/232 139/132/232
f 7/11/233 133/156/233 138/146/233 146/9/233
f 124/139/234 140/145/234 128/140/234
f 129/143/235 128/140/235 135/147/235
f 133/156/236 127/133/236 138/146/236
f 129/143/237 135/147/237 136/149/237
f 130/148/238 129/143/238 136/149/238
f 130/148/239 137/150/239 132/144/239
f 135/147/240 141/154/240 136/149/240
f 136/149/241 143/157/241 137/150/241
f 132/144/242 144/151/242 145/153/242
f 140/145/243 131/121/243 134/152/243
f 138/146/244 132/144/244 145/153/244
f 141/154/245 135/147/245 2/6/245
f 5/7/246 145/153/246 144/151/246 4/158/246
f 18/18/247 134/152/247 1/1/247 37/3/247
f 143/157/248 136/149/248 142/155/248
f 8/16/249 139/132/249 7/11/249
f 144/151/250 143/157/250 3/14/250
f 144/151/251 3/14/251 4/158/251
f 2/6/252 140/145/252 9/4/252
f 145/153/253 5/7/253 146/9/253
f 142/155/254 141/154/254 2/6/254
